<mxfile host="app.diagrams.net" modified="2024-03-15T14:47:05.622Z" agent="Mozilla/5.0 (X11; Ubuntu; Linux x86_64; rv:123.0) Gecko/20100101 Firefox/123.0" etag="K_nHMT1_LBtTWz9r2EA3" version="24.0.5" type="github">
  <diagram name="Page-1" id="0IHLlC1sL_6-LWhNVXIM">
    <mxGraphModel dx="1434" dy="-446" grid="1" gridSize="10" guides="1" tooltips="1" connect="1" arrows="1" fold="1" page="1" pageScale="1" pageWidth="827" pageHeight="1169" math="0" shadow="0">
      <root>
        <mxCell id="0" />
        <mxCell id="1" parent="0" />
        <mxCell id="XFf4GY6wzH1j03HeJP1--3" style="edgeStyle=orthogonalEdgeStyle;rounded=0;orthogonalLoop=1;jettySize=auto;html=1;" edge="1" parent="1" source="XFf4GY6wzH1j03HeJP1--1" target="XFf4GY6wzH1j03HeJP1--2">
          <mxGeometry relative="1" as="geometry" />
        </mxCell>
        <mxCell id="XFf4GY6wzH1j03HeJP1--4" value="&lt;div&gt;1. note and coomment &lt;br&gt;&lt;/div&gt;&lt;div&gt;a movie&lt;br&gt;&lt;/div&gt;" style="edgeLabel;html=1;align=center;verticalAlign=middle;resizable=0;points=[];" vertex="1" connectable="0" parent="XFf4GY6wzH1j03HeJP1--3">
          <mxGeometry x="-0.0267" y="-1" relative="1" as="geometry">
            <mxPoint as="offset" />
          </mxGeometry>
        </mxCell>
        <mxCell id="XFf4GY6wzH1j03HeJP1--1" value="web application" style="rounded=0;whiteSpace=wrap;html=1;fillColor=#d5e8d4;strokeColor=#82b366;" vertex="1" parent="1">
          <mxGeometry x="80" y="1410" width="130" height="60" as="geometry" />
        </mxCell>
        <mxCell id="XFf4GY6wzH1j03HeJP1--2" value="review service" style="rounded=0;whiteSpace=wrap;html=1;fillColor=#d5e8d4;strokeColor=#82b366;" vertex="1" parent="1">
          <mxGeometry x="390" y="1410" width="130" height="60" as="geometry" />
        </mxCell>
      </root>
    </mxGraphModel>
  </diagram>
</mxfile>
